<svg xmlns="http://www.w3.org/2000/svg" viewBox="0 0 48 48" fill="none">
  <!-- Brain with neural nodes - clean minimal design -->
  <path d="M24 6c-8 0-14 6-14 14 0 3 1 6 3 8-2 2-3 5-3 8 0 5 4 9 9 9 1 0 2 0 3-1-1 2-2 4-2 6 0 4 3 7 7 7s7-3 7-7c0-2-1-4-2-6 1 1 2 1 3 1 5 0 9-4 9-9 0-3-1-6-3-8 2-2 3-5 3-8 0-8-6-14-14-14z" fill="url(#aiGrad)"/>
  <circle cx="17" cy="18" r="2.5" fill="white" opacity="0.95"/>
  <circle cx="24" cy="14" r="2.5" fill="white" opacity="0.95"/>
  <circle cx="31" cy="18" r="2.5" fill="white" opacity="0.95"/>
  <circle cx="21" cy="26" r="2" fill="white" opacity="0.9"/>
  <circle cx="27" cy="26" r="2" fill="white" opacity="0.9"/>
  <path d="M17 18l3 4 4-4 3 4M21 26l3-4 3 4" stroke="rgba(255,255,255,0.5)" stroke-width="1" stroke-linecap="round" fill="none"/>
  <defs>
    <linearGradient id="aiGrad" x1="0" y1="0" x2="48" y2="48">
      <stop stop-color="#3b82f6"/>
      <stop offset="1" stop-color="#8b5cf6"/>
    </linearGradient>
  </defs>
</svg>
